<?xml version="1.0" encoding="UTF-8" standalone="no"?><!DOCTYPE svg PUBLIC "-//W3C//DTD SVG 1.1//EN" "http://www.w3.org/Graphics/SVG/1.1/DTD/svg11.dtd"><svg width="100%" height="100%" viewBox="0 0 5763 1292" version="1.1" xmlns="http://www.w3.org/2000/svg" xmlns:xlink="http://www.w3.org/1999/xlink" xml:space="preserve" xmlns:serif="http://www.serif.com/" style="fill-rule:evenodd;clip-rule:evenodd;stroke-linejoin:round;stroke-miterlimit:2;"><rect id="Full-Lockup-Dark" x="1.843" y="1.577" width="5758.37" height="1287.01" style="fill:none;"/><g id="Logotype"><path d="M1979.59,993.012l-60.417,-170.417l-342.083,0l-60.417,170.417l-190.417,-0l311.25,-833.75l221.25,-0l311.25,833.75l-190.416,-0Zm-350,-318.75l236.25,-0l-117.5,-331.25l-118.75,331.25Z" style="fill:#fff;fill-rule:nonzero;"/><path d="M2225.01,307.595l0,-148.333l171.667,-0l0,148.333l-171.667,0Zm0,685.417l0,-622.5l171.667,-0l0,622.5l-171.667,-0Z" style="fill:#fff;fill-rule:nonzero;"/><path d="M2895.42,738.428l170.417,-42.083c17.5,103.75 86.666,162.917 185.416,162.917c98.75,-0 123.334,-37.084 123.334,-95c-0,-57.917 -81.667,-93.75 -174.167,-121.25c-124.583,-37.084 -272.917,-84.167 -272.917,-260.834c0,-176.666 122.5,-240.833 306.25,-240.833c183.75,0 294.167,69.167 323.75,249.583l-160.416,39.584c-17.5,-102.5 -86.667,-143.334 -162.917,-143.334c-76.25,0 -129.583,35.834 -129.583,90c-0,54.167 70.416,84.167 169.166,110c125.834,34.584 280.417,91.25 280.417,255.834c0,164.583 -106.25,265.416 -313.75,265.416c-207.5,0 -318.75,-97.5 -344.583,-270.416l-0.417,0.416Z" style="fill:#fff;fill-rule:nonzero;"/><path d="M4217.92,576.762l0,416.25l-170.417,-0l0,-380.417c0,-82.917 -47.083,-117.5 -106.25,-117.5c-59.166,0 -129.583,40.833 -130.833,159.167l0,338.333l-170.417,0l0,-833.75l170.417,0l0,294.167c42.083,-64.167 106.25,-95 185.417,-95c148.333,-0 222.5,80.416 222.5,218.75l-0.417,-0Z" style="fill:#fff;fill-rule:nonzero;"/><path d="M4290.42,680.512c0,-198.75 140.833,-322.5 338.333,-322.5c197.5,-0 337.084,123.333 337.084,322.5c-0,199.166 -139.584,325 -337.084,325c-197.5,-0 -338.333,-123.334 -338.333,-325Zm505.417,-0c-0,-107.5 -66.667,-182.917 -166.667,-182.917c-100,0 -166.667,75.417 -166.667,182.917c0,107.5 66.667,185.416 166.667,185.416c100,0 166.667,-75.416 166.667,-185.416Z" style="fill:#fff;fill-rule:nonzero;"/><path d="M5707.09,680.512c-0,202.5 -134.584,325 -302.5,325c-167.917,-0 -150.834,-30.834 -195,-86.667l-0,285.417l-171.667,-0l0,-833.75l171.667,-0l-0,71.666c44.583,-55.416 113.75,-84.166 195,-84.166c167.916,-0 302.5,120 302.5,322.5Zm-170.417,-0c0,-113.75 -72.917,-181.667 -167.917,-181.667c-95,0 -166.666,67.917 -166.666,181.667c-0,113.75 71.666,182.916 166.666,182.916c95,0 167.917,-70.416 167.917,-182.916Z" style="fill:#fff;fill-rule:nonzero;"/><path d="M2887.09,517.139l-0,0.039c-147.084,0 -212.5,47.084 -212.5,190.417l-0,285.417l-170.417,-0l0,-622.5l170.417,-0l-0,91.25c31.882,-53.018 93.022,-91.56 172.3,-101.329c-0.431,7.051 -0.649,14.298 -0.649,21.745c0,57.231 15.567,100.862 40.849,134.961Z" style="fill:#fff;"/></g><g id="HEX-SCANNER" serif:id="HEX SCANNER"><path d="M352.299,603.128c5.115,1.374 9.109,5.372 10.478,10.488c1.369,5.116 -0.094,10.574 -3.839,14.319c-50.146,50.146 -186.906,186.906 -186.906,186.906c-22.523,22.523 -59.039,22.523 -81.562,-0l-0.011,-0.011c-22.523,-22.522 -22.523,-59.039 0,-81.562c0,0 122.997,-122.997 151.966,-151.966c3.748,-3.748 9.213,-5.21 14.332,-3.835c18.969,5.094 66.211,17.783 95.542,25.661Z" style="fill:#fff;"/><path d="M693.626,584.104c22.628,22.628 22.348,59.224 -0,81.573c-0,-0 -338.569,338.568 -457.595,457.594c-22.523,22.524 -59.041,22.524 -81.565,-0c-0.002,-0.003 -0.005,-0.005 -0.008,-0.008c-22.523,-22.523 -22.523,-59.041 0,-81.565c119.026,-119.026 457.595,-457.594 457.595,-457.594c22.628,-22.628 59.224,-22.349 81.573,-0Z" style="fill:#fff;"/><path d="M792.124,485.605c-80.269,-79.805 -210.838,-79.542 -291.17,0.789l-21.378,21.379c-10.4,10.4 -25.558,14.461 -39.764,10.655l-216.914,-58.122c-7.566,-2.028 -13.724,-7.522 -16.596,-14.809c-2.873,-7.287 -2.122,-15.504 2.025,-22.15l125.124,-200.492c31.586,-50.612 87.019,-81.379 146.679,-81.41c-0,-0 234.439,8.262 418.155,14.737c121.487,4.281 218.981,101.776 223.263,223.263c6.474,183.715 14.737,418.155 14.737,418.155c-0.031,59.659 -30.799,115.093 -81.41,146.679l-200.493,125.123c-6.645,4.147 -14.863,4.899 -22.15,2.026c-7.287,-2.873 -12.781,-9.03 -14.808,-16.596l-58.122,-216.914c-3.807,-14.207 0.255,-29.365 10.655,-39.764l21.378,-21.379c80.331,-80.331 80.594,-210.901 0.789,-291.17Z" style="fill:#ff5918;"/><path d="M674.601,925.431c-1.374,-5.115 -5.371,-9.109 -10.487,-10.479c-5.117,-1.369 -10.575,0.095 -14.32,3.84c-50.146,50.145 -186.906,186.905 -186.906,186.905c-22.522,22.523 -22.522,59.04 0,81.563l0.011,0.01c22.523,22.523 59.04,22.523 81.562,0c0,0 122.997,-122.997 151.966,-151.965c3.748,-3.749 5.211,-9.213 3.836,-14.333c-5.095,-18.969 -17.784,-66.211 -25.662,-95.541Z" style="fill:#fff;"/></g></svg>