<?xml version="1.0" encoding="UTF-8" standalone="no"?>
<svg xmlns="http://www.w3.org/2000/svg" viewBox="0 0 1292 1292" style="fill-rule:evenodd;clip-rule:evenodd;stroke-linejoin:round;stroke-miterlimit:2;">
  <g id="HEX-SCANNER">
    <path d="M352.299,603.128c5.115,1.374 9.109,5.372 10.478,10.488c1.369,5.116 -0.094,10.574 -3.839,14.319c-50.146,50.146 -186.906,186.906 -186.906,186.906c-22.523,22.523 -59.039,22.523 -81.562,-0l-0.011,-0.011c-22.523,-22.522 -22.523,-59.039 0,-81.562c0,0 122.997,-122.997 151.966,-151.966c3.748,-3.748 9.213,-5.21 14.332,-3.835c18.969,5.094 66.211,17.783 95.542,25.661Z" fill="#fff"/>
    <path d="M693.626,584.104c22.628,22.628 22.348,59.224 -0,81.573c-0,-0 -338.569,338.568 -457.595,457.594c-22.523,22.524 -59.041,22.524 -81.565,-0c-0.002,-0.003 -0.005,-0.005 -0.008,-0.008c-22.523,-22.523 -22.523,-59.041 0,-81.565c119.026,-119.026 457.595,-457.594 457.595,-457.594c22.628,-22.628 59.224,-22.349 81.573,-0Z" fill="#fff"/>
    <path d="M792.124,485.605c-80.269,-79.805 -210.838,-79.542 -291.17,0.789l-21.378,21.379c-10.4,10.4 -25.558,14.461 -39.764,10.655l-216.914,-58.122c-7.566,-2.028 -13.724,-7.522 -16.596,-14.809c-2.873,-7.287 -2.122,-15.504 2.025,-22.15l125.124,-200.492c31.586,-50.612 87.019,-81.379 146.679,-81.41c-0,-0 234.439,8.262 418.155,14.737c121.487,4.281 218.981,101.776 223.263,223.263c6.474,183.715 14.737,418.155 14.737,418.155c-0.031,59.659 -30.799,115.093 -81.41,146.679l-200.493,125.123c-6.645,4.147 -14.863,4.899 -22.15,2.026c-7.287,-2.873 -12.781,-9.03 -14.808,-16.596l-58.122,-216.914c-3.807,-14.207 0.255,-29.365 10.655,-39.764l21.378,-21.379c80.331,-80.331 80.594,-210.901 0.789,-291.17Z" fill="#ff5918"/>
    <path d="M674.601,925.431c-1.374,-5.115 -5.371,-9.109 -10.487,-10.479c-5.117,-1.369 -10.575,0.095 -14.32,3.84c-50.146,50.145 -186.906,186.905 -186.906,186.905c-22.522,22.523 -22.522,59.04 0,81.563l0.011,0.01c22.523,22.523 59.04,22.523 81.562,0c0,0 122.997,-122.997 151.966,-151.965c3.748,-3.749 5.211,-9.213 3.836,-14.333c-5.095,-18.969 -17.784,-66.211 -25.662,-95.541Z" fill="#fff"/>
  </g>
</svg>
