<svg xmlns="http://www.w3.org/2000/svg" viewBox="0 0 512 512" role="img" aria-label="Shopboard icon">
  <rect width="512" height="512" rx="78" fill="#222222"/>
  <path d="M80 118c0-24.3 19.7-44 44-44h264c24.3 0 44 19.7 44 44v190c0 24.3-19.7 44-44 44H124c-24.3 0-44-19.7-44-44V118Z" fill="#03366D"/>
  <path d="M116 126c0-9.9 8.1-18 18-18h244c9.9 0 18 8.1 18 18v174c0 9.9-8.1 18-18 18H134c-9.9 0-18-8.1-18-18V126Z" fill="#101C2F"/>
  <path d="M140 153c0-8.8 7.2-16 16-16h84c8.8 0 16 7.2 16 16v60c0 8.8-7.2 16-16 16h-84c-8.8 0-16-7.2-16-16v-60Z" fill="#FF5918"/>
  <path d="M278 153c0-8.8 7.2-16 16-16h62c8.8 0 16 7.2 16 16v60c0 8.8-7.2 16-16 16h-62c-8.8 0-16-7.2-16-16v-60Z" fill="#F2F2F2"/>
  <path d="M140 258c0-8.8 7.2-16 16-16h200c8.8 0 16 7.2 16 16v20c0 8.8-7.2 16-16 16H156c-8.8 0-16-7.2-16-16v-20Z" fill="#FF5918"/>
  <path d="M186 375h140l20 62H166l20-62Z" fill="#03366D"/>
  <path d="M152 437h208c13.3 0 24 10.7 24 24v3H128v-3c0-13.3 10.7-24 24-24Z" fill="#FF5918"/>
  <circle cx="176" cy="183" r="16" fill="#F2F2F2"/>
  <path d="M208 171h24v24h-24v-24Z" fill="#F2F2F2"/>
  <path d="M307 177h36v10h-36v-10Zm0 24h50v10h-50v-10Z" fill="#03366D"/>
  <path d="M164 269h92v9h-92v-9Zm116 0h56v9h-56v-9Z" fill="#F2F2F2"/>
</svg>
